<svg width="14" height="14" viewBox="0 0 14 14" fill="none" xmlns="http://www.w3.org/2000/svg">
<path fill-rule="evenodd" clip-rule="evenodd" d="M5.26642 10.5336C2.35786 10.5336 0 8.1756 0 5.26682C0 2.35804 2.35786 0 5.26642 0C8.17498 0 10.5328 2.35804 10.5328 5.26682C10.5328 6.4043 10.1723 7.45757 9.55921 8.31853L13.7427 12.2646C14.0854 12.6073 14.0881 13.1604 13.7368 13.5117L13.4442 13.7378C13.0982 14.0838 12.5424 14.0889 12.1972 13.7438L8.3179 9.55994C7.457 10.173 6.40382 10.5336 5.26642 10.5336ZM8.77738 5.26687C8.77738 3.32768 7.20548 1.75566 5.26644 1.75566C3.3274 1.75566 1.75549 3.32768 1.75549 5.26687C1.75549 7.20606 3.3274 8.77808 5.26644 8.77808C7.20548 8.77808 8.77738 7.20606 8.77738 5.26687Z" fill="#395380"/>
</svg>
